<svg xmlns="http://www.w3.org/2000/svg" viewBox="0 0 720 372" width="720" height="372" role="img" aria-labelledby="t d" font-family="'Outfit', 'Inter', system-ui, -apple-system, 'Segoe UI', sans-serif" font-size="12">
<title id="t">Supplement forms</title><desc id="d">Share of 17,625 products by labelled form</desc>
<rect width="720" height="372" fill="#0b0e0f"/>
<text x="20" y="26" font-size="15" font-weight="600" fill="#eef1f2">Supplement forms</text>
<text x="20" y="44" font-size="12" fill="#97a1a3">Share of 17,625 products by labelled form</text>
<line x1="182" y1="56" x2="182" y2="332" stroke="#22282b" stroke-width="1"/>
<g><title>Capsule: 35.2%</title><rect x="0" y="62" width="720" height="30" fill="transparent"/><path d="M182 68.0 h434.0 a4 4 0 0 1 4 4 v10 a4 4 0 0 1 -4 4 h-434.0 z" fill="#2fd4a3"/><text x="172" y="81.0" text-anchor="end" fill="#eef1f2">Capsule</text><text x="628.0" y="81.0" fill="#97a1a3" font-family="'JetBrains Mono', ui-monospace, Menlo, Consolas, monospace" font-size="11">35.2%</text></g>
<g><title>Powder: 19.3%</title><rect x="0" y="92" width="720" height="30" fill="transparent"/><path d="M182 98.0 h236.1 a4 4 0 0 1 4 4 v10 a4 4 0 0 1 -4 4 h-236.1 z" fill="#2fd4a3"/><text x="172" y="111.0" text-anchor="end" fill="#eef1f2">Powder</text><text x="430.1" y="111.0" fill="#97a1a3" font-family="'JetBrains Mono', ui-monospace, Menlo, Consolas, monospace" font-size="11">19.3%</text></g>
<g><title>Tablet or Pill: 15.7%</title><rect x="0" y="122" width="720" height="30" fill="transparent"/><path d="M182 128.0 h191.3 a4 4 0 0 1 4 4 v10 a4 4 0 0 1 -4 4 h-191.3 z" fill="#2fd4a3"/><text x="172" y="141.0" text-anchor="end" fill="#eef1f2">Tablet or Pill</text><text x="385.3" y="141.0" fill="#97a1a3" font-family="'JetBrains Mono', ui-monospace, Menlo, Consolas, monospace" font-size="11">15.7%</text></g>
<g><title>Softgel Capsule: 12.3%</title><rect x="0" y="152" width="720" height="30" fill="transparent"/><path d="M182 158.0 h149.4 a4 4 0 0 1 4 4 v10 a4 4 0 0 1 -4 4 h-149.4 z" fill="#2fd4a3"/><text x="172" y="171.0" text-anchor="end" fill="#eef1f2">Softgel Capsule</text><text x="343.4" y="171.0" fill="#97a1a3" font-family="'JetBrains Mono', ui-monospace, Menlo, Consolas, monospace" font-size="11">12.3%</text></g>
<g><title>Liquid: 9.8%</title><rect x="0" y="182" width="720" height="30" fill="transparent"/><path d="M182 188.0 h117.5 a4 4 0 0 1 4 4 v10 a4 4 0 0 1 -4 4 h-117.5 z" fill="#2fd4a3"/><text x="172" y="201.0" text-anchor="end" fill="#eef1f2">Liquid</text><text x="311.5" y="201.0" fill="#97a1a3" font-family="'JetBrains Mono', ui-monospace, Menlo, Consolas, monospace" font-size="11">9.8%</text></g>
<g><title>Gummy or Jelly: 3.6%</title><rect x="0" y="212" width="720" height="30" fill="transparent"/><path d="M182 218.0 h41.0 a4 4 0 0 1 4 4 v10 a4 4 0 0 1 -4 4 h-41.0 z" fill="#2fd4a3"/><text x="172" y="231.0" text-anchor="end" fill="#eef1f2">Gummy or Jelly</text><text x="235.0" y="231.0" fill="#97a1a3" font-family="'JetBrains Mono', ui-monospace, Menlo, Consolas, monospace" font-size="11">3.6%</text></g>
<g><title>Other (e.g. tea bag): 3.0%</title><rect x="0" y="242" width="720" height="30" fill="transparent"/><path d="M182 248.0 h33.3 a4 4 0 0 1 4 4 v10 a4 4 0 0 1 -4 4 h-33.3 z" fill="#2fd4a3"/><text x="172" y="261.0" text-anchor="end" fill="#eef1f2">Other (e.g. tea bag)</text><text x="227.3" y="261.0" fill="#97a1a3" font-family="'JetBrains Mono', ui-monospace, Menlo, Consolas, monospace" font-size="11">3.0%</text></g>
<g><title>Lozenge: 0.9%</title><rect x="0" y="272" width="720" height="30" fill="transparent"/><path d="M182 278.0 h7.4 a4 4 0 0 1 4 4 v10 a4 4 0 0 1 -4 4 h-7.4 z" fill="#2fd4a3"/><text x="172" y="291.0" text-anchor="end" fill="#eef1f2">Lozenge</text><text x="201.4" y="291.0" fill="#97a1a3" font-family="'JetBrains Mono', ui-monospace, Menlo, Consolas, monospace" font-size="11">0.9%</text></g>
<g><title>Unknown: 0.2%</title><rect x="0" y="302" width="720" height="30" fill="transparent"/><rect x="182" y="308.0" width="2.3" height="18" fill="#2fd4a3"/><text x="172" y="321.0" text-anchor="end" fill="#eef1f2">Unknown</text><text x="192.3" y="321.0" fill="#97a1a3" font-family="'JetBrains Mono', ui-monospace, Menlo, Consolas, monospace" font-size="11">0.2%</text></g>
<text x="20" y="360" font-size="11" fill="#97a1a3">Source: SuppDB, suppdb.dataengineered.io/stats · NIH DSLD labels · snapshot 2026-07-07 · CC BY 4.0</text>
</svg>
