<svg xmlns="http://www.w3.org/2000/svg" viewBox="0 0 720 552" width="720" height="552" role="img" aria-labelledby="t d" font-family="'Outfit', 'Inter', system-ui, -apple-system, 'Segoe UI', sans-serif" font-size="12">
<title id="t">Brands with the most products on file</title><desc id="d">Products per brand, top 15 of 2,257 brands</desc>
<rect width="720" height="552" fill="#0b0e0f"/>
<text x="20" y="26" font-size="15" font-weight="600" fill="#eef1f2">Brands with the most products on file</text>
<text x="20" y="44" font-size="12" fill="#97a1a3">Products per brand, top 15 of 2,257 brands</text>
<line x1="252" y1="56" x2="252" y2="512" stroke="#22282b" stroke-width="1"/>
<g><title>BulkSupplements.com: 522</title><rect x="0" y="62" width="720" height="30" fill="transparent"/><path d="M252 68.0 h364.0 a4 4 0 0 1 4 4 v10 a4 4 0 0 1 -4 4 h-364.0 z" fill="#2fd4a3"/><text x="242" y="81.0" text-anchor="end" fill="#eef1f2">BulkSupplements.com</text><text x="628.0" y="81.0" fill="#97a1a3" font-family="'JetBrains Mono', ui-monospace, Menlo, Consolas, monospace" font-size="11">522</text></g>
<g><title>TerraVita Premium Collection: 435</title><rect x="0" y="92" width="720" height="30" fill="transparent"/><path d="M252 98.0 h302.7 a4 4 0 0 1 4 4 v10 a4 4 0 0 1 -4 4 h-302.7 z" fill="#2fd4a3"/><text x="242" y="111.0" text-anchor="end" fill="#eef1f2">TerraVita Premium Collection</text><text x="566.7" y="111.0" fill="#97a1a3" font-family="'JetBrains Mono', ui-monospace, Menlo, Consolas, monospace" font-size="11">435</text></g>
<g><title>NOW: 380</title><rect x="0" y="122" width="720" height="30" fill="transparent"/><path d="M252 128.0 h263.9 a4 4 0 0 1 4 4 v10 a4 4 0 0 1 -4 4 h-263.9 z" fill="#2fd4a3"/><text x="242" y="141.0" text-anchor="end" fill="#eef1f2">NOW</text><text x="527.9" y="141.0" fill="#97a1a3" font-family="'JetBrains Mono', ui-monospace, Menlo, Consolas, monospace" font-size="11">380</text></g>
<g><title>Hawaii Pharm: 311</title><rect x="0" y="152" width="720" height="30" fill="transparent"/><path d="M252 158.0 h215.2 a4 4 0 0 1 4 4 v10 a4 4 0 0 1 -4 4 h-215.2 z" fill="#2fd4a3"/><text x="242" y="171.0" text-anchor="end" fill="#eef1f2">Hawaii Pharm</text><text x="479.2" y="171.0" fill="#97a1a3" font-family="'JetBrains Mono', ui-monospace, Menlo, Consolas, monospace" font-size="11">311</text></g>
<g><title>Nature&#x27;s Way: 253</title><rect x="0" y="182" width="720" height="30" fill="transparent"/><path d="M252 188.0 h174.4 a4 4 0 0 1 4 4 v10 a4 4 0 0 1 -4 4 h-174.4 z" fill="#2fd4a3"/><text x="242" y="201.0" text-anchor="end" fill="#eef1f2">Nature&#x27;s Way</text><text x="438.4" y="201.0" fill="#97a1a3" font-family="'JetBrains Mono', ui-monospace, Menlo, Consolas, monospace" font-size="11">253</text></g>
<g><title>Douglas Laboratories: 233</title><rect x="0" y="212" width="720" height="30" fill="transparent"/><path d="M252 218.0 h160.3 a4 4 0 0 1 4 4 v10 a4 4 0 0 1 -4 4 h-160.3 z" fill="#2fd4a3"/><text x="242" y="231.0" text-anchor="end" fill="#eef1f2">Douglas Laboratories</text><text x="424.3" y="231.0" fill="#97a1a3" font-family="'JetBrains Mono', ui-monospace, Menlo, Consolas, monospace" font-size="11">233</text></g>
<g><title>Puritan&#x27;s Pride: 218</title><rect x="0" y="242" width="720" height="30" fill="transparent"/><path d="M252 248.0 h149.7 a4 4 0 0 1 4 4 v10 a4 4 0 0 1 -4 4 h-149.7 z" fill="#2fd4a3"/><text x="242" y="261.0" text-anchor="end" fill="#eef1f2">Puritan&#x27;s Pride</text><text x="413.7" y="261.0" fill="#97a1a3" font-family="'JetBrains Mono', ui-monospace, Menlo, Consolas, monospace" font-size="11">218</text></g>
<g><title>Source Naturals: 194</title><rect x="0" y="272" width="720" height="30" fill="transparent"/><path d="M252 278.0 h132.8 a4 4 0 0 1 4 4 v10 a4 4 0 0 1 -4 4 h-132.8 z" fill="#2fd4a3"/><text x="242" y="291.0" text-anchor="end" fill="#eef1f2">Source Naturals</text><text x="396.8" y="291.0" fill="#97a1a3" font-family="'JetBrains Mono', ui-monospace, Menlo, Consolas, monospace" font-size="11">194</text></g>
<g><title>Pure Encapsulations: 189</title><rect x="0" y="302" width="720" height="30" fill="transparent"/><path d="M252 308.0 h129.2 a4 4 0 0 1 4 4 v10 a4 4 0 0 1 -4 4 h-129.2 z" fill="#2fd4a3"/><text x="242" y="321.0" text-anchor="end" fill="#eef1f2">Pure Encapsulations</text><text x="393.2" y="321.0" fill="#97a1a3" font-family="'JetBrains Mono', ui-monospace, Menlo, Consolas, monospace" font-size="11">189</text></g>
<g><title>The Vitamin Shoppe: 173</title><rect x="0" y="332" width="720" height="30" fill="transparent"/><path d="M252 338.0 h118.0 a4 4 0 0 1 4 4 v10 a4 4 0 0 1 -4 4 h-118.0 z" fill="#2fd4a3"/><text x="242" y="351.0" text-anchor="end" fill="#eef1f2">The Vitamin Shoppe</text><text x="382.0" y="351.0" fill="#97a1a3" font-family="'JetBrains Mono', ui-monospace, Menlo, Consolas, monospace" font-size="11">173</text></g>
<g><title>Nature Made: 172</title><rect x="0" y="362" width="720" height="30" fill="transparent"/><path d="M252 368.0 h117.3 a4 4 0 0 1 4 4 v10 a4 4 0 0 1 -4 4 h-117.3 z" fill="#2fd4a3"/><text x="242" y="381.0" text-anchor="end" fill="#eef1f2">Nature Made</text><text x="381.3" y="381.0" fill="#97a1a3" font-family="'JetBrains Mono', ui-monospace, Menlo, Consolas, monospace" font-size="11">172</text></g>
<g><title>Bluebonnet: 164</title><rect x="0" y="392" width="720" height="30" fill="transparent"/><path d="M252 398.0 h111.6 a4 4 0 0 1 4 4 v10 a4 4 0 0 1 -4 4 h-111.6 z" fill="#2fd4a3"/><text x="242" y="411.0" text-anchor="end" fill="#eef1f2">Bluebonnet</text><text x="375.6" y="411.0" fill="#97a1a3" font-family="'JetBrains Mono', ui-monospace, Menlo, Consolas, monospace" font-size="11">164</text></g>
<g><title>Country Life: 163</title><rect x="0" y="422" width="720" height="30" fill="transparent"/><path d="M252 428.0 h110.9 a4 4 0 0 1 4 4 v10 a4 4 0 0 1 -4 4 h-110.9 z" fill="#2fd4a3"/><text x="242" y="441.0" text-anchor="end" fill="#eef1f2">Country Life</text><text x="374.9" y="441.0" fill="#97a1a3" font-family="'JetBrains Mono', ui-monospace, Menlo, Consolas, monospace" font-size="11">163</text></g>
<g><title>Good &#x27;N Natural: 146</title><rect x="0" y="452" width="720" height="30" fill="transparent"/><path d="M252 458.0 h98.9 a4 4 0 0 1 4 4 v10 a4 4 0 0 1 -4 4 h-98.9 z" fill="#2fd4a3"/><text x="242" y="471.0" text-anchor="end" fill="#eef1f2">Good &#x27;N Natural</text><text x="362.9" y="471.0" fill="#97a1a3" font-family="'JetBrains Mono', ui-monospace, Menlo, Consolas, monospace" font-size="11">146</text></g>
<g><title>Solgar: 138</title><rect x="0" y="482" width="720" height="30" fill="transparent"/><path d="M252 488.0 h93.3 a4 4 0 0 1 4 4 v10 a4 4 0 0 1 -4 4 h-93.3 z" fill="#2fd4a3"/><text x="242" y="501.0" text-anchor="end" fill="#eef1f2">Solgar</text><text x="357.3" y="501.0" fill="#97a1a3" font-family="'JetBrains Mono', ui-monospace, Menlo, Consolas, monospace" font-size="11">138</text></g>
<text x="20" y="540" font-size="11" fill="#97a1a3">Source: SuppDB, suppdb.dataengineered.io/stats · NIH DSLD labels · snapshot 2026-09-18 · CC BY 4.0</text>
</svg>
